<?xml version="1.0" encoding="utf-8"?>
<!-- Generator: Adobe Illustrator 26.0.2, SVG Export Plug-In . SVG Version: 6.00 Build 0)  -->
<svg version="1.1" id="Layer_1" xmlns="http://www.w3.org/2000/svg" xmlns:xlink="http://www.w3.org/1999/xlink" width="386" height="82" x="0px" y="0px"
	 viewBox="0 0 386.6 82.6" style="enable-background:new 0 0 386.6 82.6;" xml:space="preserve">
<style type="text/css">
	.st0{fill:#FFED00;}
</style>
<g>
	<rect class="st0" width="386.6" height="82.6"/>
	<rect x="135.8" y="22.1" width="7.5" height="6.2"/>
	<path d="M17.7,50.9c0,3.3,2.8,4.6,5.8,4.6c2.2,0,4.9-0.8,4.9-3.5c0-2.3-3.1-3.1-8.5-4.2c-4.3-1-8.7-2.5-8.7-7.3c0-7,6-8.8,11.9-8.8
		c6,0,11.5,2,12.1,8.7H28c-0.2-2.9-2.4-3.7-5.1-3.7c-1.7,0-4.2,0.3-4.2,2.5c0,2.7,4.2,3.1,8.5,4.1c4.4,1,8.7,2.6,8.7,7.7
		c0,7.2-6.2,9.5-12.5,9.5c-6.3,0-12.5-2.4-12.8-9.6H17.7z"/>
	<path d="M38.4,40.9c0.4-7,6.7-9.1,12.8-9.1c5.4,0,12,1.2,12,7.8v14.2c0,2.5,0.3,5,1,6.1h-7.6c-0.3-0.8-0.5-1.7-0.5-2.6
		c-2.4,2.5-5.9,3.4-9.2,3.4c-5.2,0-9.3-2.6-9.3-8.2c0-6.2,4.6-7.7,9.3-8.3c4.6-0.7,8.9-0.5,8.9-3.6c0-3.2-2.2-3.7-4.9-3.7
		c-2.9,0-4.7,1.2-5,4.1H38.4z M55.7,46.4c-1.3,1.1-3.9,1.2-6.2,1.6c-2.3,0.5-4.4,1.3-4.4,4c0,2.8,2.2,3.5,4.6,3.5
		c5.9,0,6.1-4.7,6.1-6.3V46.4z"/>
	<path d="M66.4,22.1h7.5v14.2H74c1.9-3.1,5.2-4.5,8-4.5c8,0,10,4.5,10,11.3v16.8h-7.5V44.4c0-4.5-1.3-6.7-4.8-6.7
		c-4.1,0-5.8,2.3-5.8,7.8v14.3h-7.5V22.1z"/>
	<path d="M102.8,28.3h-7.5v-6.2h7.5V28.3z M95.3,32.5h7.5v27.3h-7.5V32.5z"/>
	<path d="M106.2,22.1h7.5v13.7h0.1c1.8-2.8,5.2-4.1,8.6-4.1c5.4,0,11.3,4.4,11.3,14.4c0,10-5.9,14.4-11.3,14.4c-4,0-7.3-1.2-9-4.2
		h-0.1v3.5h-7.1V22.1z M119.8,37.4c-4.4,0-6.4,4.2-6.4,8.8c0,4.6,2,8.7,6.4,8.7c4.4,0,6.4-4.2,6.4-8.7
		C126.2,41.6,124.3,37.4,119.8,37.4"/>
	<rect x="264.1" y="53.6" width="7.5" height="6.2"/>
	<rect x="135.8" y="32.5" width="7.5" height="27.3"/>
	<path d="M146.7,32.5h7.1v3.8h0.2c1.9-3.1,5.2-4.5,8.4-4.5c8,0,10,4.5,10,11.3v16.8h-7.5V44.4c0-4.5-1.3-6.7-4.8-6.7
		c-4.1,0-5.8,2.3-5.8,7.8v14.3h-7.5V32.5z"/>
	<path d="M195.3,56.3L195.3,56.3c-1.8,3-4.9,4.2-8.4,4.2c-8.2,0-12.3-7.1-12.3-14.6c0-7.3,4.1-14.2,12.1-14.2c3.2,0,6.4,1.4,8.1,4.1
		h0.1V22.1h7.5v37.7h-7.1V56.3z M188.7,37.4c-4.9,0-6.6,4.2-6.6,8.7c0,4.3,2,8.8,6.6,8.8c5,0,6.5-4.3,6.5-8.8
		C195.2,41.6,193.6,37.4,188.7,37.4"/>
	<path d="M212,48c0.2,4.8,2.5,6.9,6.7,6.9c3,0,5.4-1.9,5.9-3.5h6.6c-2.1,6.5-6.6,9.2-12.8,9.2c-8.6,0-14-5.9-14-14.4
		c0-8.2,5.7-14.4,14-14.4c9.3,0,13.8,7.8,13.3,16.2H212z M224.2,43.2c-0.7-3.8-2.3-5.8-6-5.8c-4.8,0-6.1,3.7-6.2,5.8H224.2z"/>
	<path d="M233.5,32.5h7.1v3.8h0.2c1.9-3.1,5.2-4.5,8.4-4.5c8,0,10,4.5,10,11.3v16.8h-7.5V44.4c0-4.5-1.3-6.7-4.8-6.7
		c-4.1,0-5.8,2.3-5.8,7.8v14.3h-7.5V32.5z"/>
	<path d="M294.6,42.1c-0.5-3.1-2.4-4.7-5.6-4.7c-4.8,0-6.4,4.9-6.4,8.9c0,3.9,1.5,8.6,6.2,8.6c3.5,0,5.5-2.2,6-5.6h7.2
		c-0.9,7.2-6,11.2-13.2,11.2c-8.2,0-13.8-5.8-13.8-14c0-8.5,5.1-14.8,14-14.8c6.5,0,12.4,3.4,12.8,10.4H294.6z"/>
	<path d="M318,31.7c8.6,0,14.2,5.7,14.2,14.4c0,8.7-5.5,14.4-14.2,14.4c-8.6,0-14.1-5.7-14.1-14.4C303.9,37.4,309.5,31.7,318,31.7
		 M318,54.9c5.1,0,6.7-4.4,6.7-8.7c0-4.4-1.5-8.8-6.7-8.8c-5.1,0-6.6,4.4-6.6,8.8C311.4,50.5,313,54.9,318,54.9"/>
	<path d="M334.3,32.4h7.1v3.7h0.1c2-2.8,4.8-4.4,8.3-4.4c3.4,0,6.5,1.3,8,4.5c1.6-2.4,4.4-4.5,8.2-4.5c5.8,0,10,2.7,10,9.8v18.3
		h-7.5V44.3c0-3.7-0.3-6.7-4.6-6.7c-4.2,0-5,3.5-5,6.9v15.2h-7.5V44.5c0-3.2,0.2-6.8-4.6-6.8c-1.5,0-5.1,1-5.1,6.3v15.9h-7.5V32.4z"
		/>
</g>
</svg>
